<svg width="148" height="225" viewBox="0 0 148 225" fill="none" xmlns="http://www.w3.org/2000/svg">
<g filter="url(#filter0_d_744_39760)">
<path opacity="0.2" d="M119.037 52.8614C115.325 46.4508 108.045 42.5921 105.914 35.9081C105.302 33.9534 105.235 31.9547 104.53 30.0134C102.754 25.0961 97.7634 22.4401 93.4634 20.2361C85.6167 16.1734 78.3301 10.9561 70.9007 6.82143C63.4754 2.70143 55.6287 -0.341248 47.426 0.652084C39.2034 1.57208 30.6074 7.37608 25.5874 16.2188C20.5754 25.1174 20.03 36.0374 25.586 39.6761C20.8887 41.6961 16.1821 44.1787 12.1381 48.5067C8.08739 52.8347 4.78339 59.3454 4.90873 64.1601C5.07139 71.1681 12.194 71.5414 18.9207 69.8094C25.6007 67.9667 33.0047 64.6147 39.3701 66.7081C36.2687 66.9227 33.0274 69.4067 31.3127 72.7134C29.5981 76.0254 29.47 79.9494 30.986 82.5041C27.7127 82.5187 24.4021 82.6908 21.1461 84.1894C17.8861 85.6814 14.6394 88.7588 13.1647 92.5228C11.6927 96.2934 12.6141 100.444 15.5741 100.815C10.9247 101.311 6.26739 107.809 5.74339 113.097C5.21939 118.401 8.19938 122.224 12.3994 123.369C16.5914 124.488 21.7394 123.239 26.4981 120.905C31.2527 118.575 35.71 115.197 40.1594 111.941C36.0594 118.136 38.9167 127.416 45.1554 128.556C40.0834 129.732 34.9461 131.156 30.4394 134.356C25.9301 137.559 22.0861 142.835 21.5354 148.356C20.7127 156.527 27.1981 162.268 34.0434 164.935C40.8754 167.541 48.618 168.276 54.9527 172.668C45.7874 171.865 38.094 183.636 39.3207 193.695C40.5407 203.791 48.4474 211.657 57.1247 214.744C65.8047 217.807 75.1487 216.748 84.0967 214.969C88.5647 214.085 93.3874 212.776 96.2047 208.745C98.8221 205.004 99.0314 199.66 97.7781 195.035C96.5261 190.412 94.0047 186.331 91.5101 182.333C99.6007 180.984 106.574 174.228 108.609 165.605C110.639 157.005 107.359 137.792 100.859 131.208C112.378 136.872 115.03 137.211 125.87 135.513C132.278 134.669 133.049 127.541 138.399 125.24C141.111 124.084 144.053 122.551 143.65 118.808C143.103 113.509 137.053 109.672 133.025 105.32C129.486 101.4 134.995 96.6454 133.134 91.8908C131.223 87.0508 127.059 78.5881 118.006 76.3801C115.202 67.0161 125.949 64.5228 119.037 52.8614Z" fill="#D7D5D5"/>
</g>
<defs>
<filter id="filter0_d_744_39760" x="0.905273" y="0.462769" width="146.782" height="224.223" filterUnits="userSpaceOnUse" color-interpolation-filters="sRGB">
<feFlood flood-opacity="0" result="BackgroundImageFix"/>
<feColorMatrix in="SourceAlpha" type="matrix" values="0 0 0 0 0 0 0 0 0 0 0 0 0 0 0 0 0 0 127 0" result="hardAlpha"/>
<feOffset dy="4"/>
<feGaussianBlur stdDeviation="2"/>
<feComposite in2="hardAlpha" operator="out"/>
<feColorMatrix type="matrix" values="0 0 0 0 0 0 0 0 0 0 0 0 0 0 0 0 0 0 0.25 0"/>
<feBlend mode="normal" in2="BackgroundImageFix" result="effect1_dropShadow_744_39760"/>
<feBlend mode="normal" in="SourceGraphic" in2="effect1_dropShadow_744_39760" result="shape"/>
</filter>
</defs>
</svg>
